# xmcd
#
# Track frame offsets:
#	150
#	11823
#	25354
#	40889
#	56688
#	68050
#	81022
#	93684
#	108059
#	124014
#	138883
#	150528
#
# Disc length: 2262 seconds
#
# Revision: 0
# Processed by: cddbd v1.5.1PL0 Copyright (c) Steve Scherf et al.
# Submitted via: audiograbber 1.83.01
#
DISCID=9508d40c
DTITLE=LeDoux, Chris - Best Of - LeDoux, Chris - Best Of
DYEAR=1900
DGENRE=Country
TTITLE0=Whatcha Gonna Do With A Cowboy (Duet with Garth Brooks)
TTITLE1=County Fair
TTITLE2=For Your Love
TTITLE3=Riding For A Fall
TTITLE4=Under This Old Hat
TTITLE5=Cadillac Ranch
TTITLE6=Workin' Man's Dollar
TTITLE7=Look At You Girl
TTITLE8=Hooked On An 8 Second Ride
TTITLE9=Cadillac Cowboy
TTITLE10=Everytime I Roll The Dice
TTITLE11=This Cowboy's Hat
EXTD=
EXTT0=
EXTT1=
EXTT2=
EXTT3=
EXTT4=
EXTT5=
EXTT6=
EXTT7=
EXTT8=
EXTT9=
EXTT10=
EXTT11=
PLAYORDER=
